<?xml version="1.0" standalone="no"?>
<!DOCTYPE svg PUBLIC "-//W3C//DTD SVG 20010904//EN"
 "http://www.w3.org/TR/2001/REC-SVG-20010904/DTD/svg10.dtd">
<svg version="1.0" xmlns="http://www.w3.org/2000/svg"
 width="700.000000pt" height="700.000000pt" viewBox="0 0 700.000000 700.000000"
 preserveAspectRatio="xMidYMid meet">
<metadata>
Created by potrace 1.14, written by Peter Selinger 2001-2017
</metadata>
<g transform="translate(0.000000,700.000000) scale(0.100000,-0.100000)"
fill="#000000" stroke="none">
<path d="M5530 6712 c-271 -16 -585 -106 -908 -263 -68 -32 -127 -57 -130 -55
-26 15 -348 23 -457 11 -155 -17 -262 -38 -378 -77 -219 -72 -378 -196 -459
-358 -58 -115 -76 -201 -77 -365 l-1 -80 -158 0 c-242 -1 -408 -28 -577 -95
-324 -129 -508 -359 -580 -725 -4 -16 -9 -88 -12 -160 -3 -71 -7 -132 -9 -134
-1 -2 -32 -5 -67 -6 -65 -4 -115 -14 -197 -42 -25 -8 -49 -16 -55 -17 -22 -4
-153 -62 -198 -88 -26 -15 -50 -28 -53 -28 -11 0 -122 -85 -168 -129 -68 -65
-160 -191 -197 -269 -53 -115 -73 -176 -105 -327 -10 -48 -18 -159 -18 -280
-1 -88 -5 -134 -13 -143 -42 -44 -155 -286 -228 -487 -64 -176 -132 -427 -151
-560 -3 -16 -9 -52 -14 -80 -5 -27 -12 -81 -16 -120 -4 -38 -8 -83 -10 -100
-6 -52 -6 -337 1 -410 12 -143 64 -395 86 -420 5 -5 9 -15 9 -23 0 -19 74
-165 117 -229 126 -191 339 -321 583 -359 47 -7 250 -7 285 0 11 2 49 7 85 11
36 4 68 9 71 11 3 2 20 6 38 9 284 50 677 232 1056 489 173 117 505 371 650
497 149 130 299 263 410 364 245 223 1239 1209 1422 1410 44 50 101 110 125
135 54 58 192 210 233 258 16 19 39 45 50 56 56 58 335 400 441 541 216 289
351 502 479 760 160 320 238 573 270 870 9 83 7 252 -4 312 -79 426 -464 678
-1066 696 -33 1 -80 1 -105 -1z m250 -276 c224 -29 404 -99 518 -201 109 -98
151 -210 146 -394 -11 -459 -245 -984 -722 -1619 -69 -92 -128 -169 -131 -172
-4 -3 -22 -25 -41 -50 -19 -25 -37 -47 -40 -50 -3 -3 -39 -45 -80 -95 -41 -49
-84 -101 -96 -115 -50 -59 -118 -135 -123 -140 -3 -3 -40 -43 -81 -90 -41 -47
-100 -112 -131 -145 -31 -33 -92 -98 -135 -144 -180 -192 -814 -831 -1039
-1046 -89 -85 -291 -275 -330 -310 -16 -15 -53 -48 -81 -74 -222 -203 -378
-333 -684 -574 -65 -51 -102 -77 -235 -168 -481 -327 -879 -484 -1260 -494
-280 -7 -488 137 -591 411 -63 168 -88 334 -88 579 1 240 29 425 109 715 43
158 127 382 194 518 l51 103 47 -7 c50 -7 72 -10 113 -19 14 -3 36 -7 50 -10
14 -3 59 -11 100 -20 41 -8 86 -17 100 -19 14 -3 50 -10 80 -16 30 -6 69 -13
85 -15 17 -3 53 -10 80 -15 56 -10 101 -18 160 -26 22 -3 54 -7 70 -9 133 -20
424 -27 512 -13 107 18 226 101 252 177 42 128 -19 243 -188 356 -110 72 -350
177 -460 200 -9 2 -43 11 -76 19 -33 9 -71 19 -85 21 -14 3 -36 7 -50 10 -155
33 -455 38 -552 9 -9 -3 -27 -7 -40 -9 -13 -3 -35 -7 -50 -11 -27 -5 -28 -4
-21 28 11 59 54 181 86 248 22 45 56 89 109 142 66 66 95 86 191 132 141 69
289 114 366 111 162 -7 302 -40 735 -177 347 -109 424 -131 606 -173 138 -32
212 -40 345 -39 88 0 123 5 175 24 254 90 304 325 112 531 -49 54 -146 136
-193 164 -193 115 -329 180 -499 237 -87 30 -255 73 -320 83 -25 3 -63 9 -85
13 -91 15 -425 5 -455 -13 -3 -2 -17 -6 -31 -9 -13 -2 -32 -8 -43 -12 -16 -6
-17 -4 -11 17 18 62 90 191 135 241 100 113 222 167 475 212 43 8 167 18 255
20 76 3 243 -21 348 -50 31 -8 64 -17 72 -19 8 -1 141 -39 295 -83 257 -74
386 -109 425 -117 8 -2 35 -8 60 -15 47 -13 50 -13 140 -30 161 -31 312 -32
390 -4 106 38 171 132 171 248 0 189 -158 373 -433 500 -89 41 -198 81 -248
91 -12 2 -37 9 -54 14 -117 37 -408 57 -566 38 -30 -3 -82 -9 -114 -13 l-59
-7 26 44 c75 125 225 211 449 255 166 32 519 37 633 8 16 -4 59 12 142 53 65
33 138 67 163 77 25 10 59 24 75 31 60 28 262 93 355 115 123 29 124 29 195
36 33 4 61 7 63 9 5 4 209 -3 262 -9z m-1875 -862 c332 -46 635 -186 691 -319
27 -65 23 -68 -63 -62 -149 11 -348 58 -827 196 -202 59 -319 87 -401 97 -71
9 -72 15 -11 40 51 20 102 33 231 57 50 9 290 3 380 -9z m-1310 -1029 c290
-32 594 -141 825 -296 88 -59 190 -158 190 -185 0 -30 -67 -44 -184 -40 -61 3
-121 7 -132 9 -12 3 -64 15 -115 26 -94 20 -356 96 -654 190 -270 84 -481 140
-507 133 -19 -5 -5 18 27 47 114 99 315 142 550 116z m-1110 -1299 c226 -12
457 -75 655 -178 102 -53 119 -66 100 -78 -56 -34 -372 -17 -626 34 -12 2 -39
7 -60 11 -75 11 -100 16 -174 31 -105 22 -352 69 -395 76 -15 2 -8 10 30 30
77 40 168 65 270 74 39 4 72 8 73 10 2 1 9 1 15 -1 7 -2 57 -6 112 -9z"/>
</g>
</svg>
